# Blender 4.3.0
# www.blender.org
mtllib arrow.mtl
o arrow
v 0.900000 0.000000 -0.825000
v -0.000000 -0.900000 -0.825000
v -0.900000 0.000000 -0.825000
v -0.000000 0.900000 -0.825000
v 0.000000 -0.000000 0.825000
v -0.000000 0.281127 -0.800788
v 0.281127 0.000000 -0.800788
v -0.281127 0.000000 -0.800788
v -0.000000 -0.281127 -0.800788
v -0.000000 0.281127 -1.924925
v 0.281127 -0.000000 -1.924925
v -0.281127 -0.000000 -1.924925
v -0.000000 -0.281127 -1.924925
vn 0.6597 -0.6597 0.3599
vn -0.6597 -0.6597 0.3599
vn -0.0000 -0.0000 -1.0000
vn -0.6597 0.6597 0.3599
vn 0.6597 0.6597 0.3599
vn -0.7071 0.7071 -0.0000
vn -0.7071 -0.7071 -0.0000
vn 0.7071 -0.7071 -0.0000
vn -0.0000 -0.0000 1.0000
vn 0.7071 0.7071 -0.0000
vt 0.250000 0.490000
vt 0.250000 0.250000
vt 0.490000 0.250000
vt 0.250000 0.010000
vt 0.750000 0.490000
vt 0.990000 0.250000
vt 0.750000 0.010000
vt 0.510000 0.250000
vt 0.010000 0.250000
vt 0.625000 0.500000
vt 0.875000 0.500000
vt 0.875000 0.750000
vt 0.625000 0.750000
vt 0.375000 0.750000
vt 0.625000 1.000000
vt 0.375000 1.000000
vt 0.375000 0.000000
vt 0.625000 0.000000
vt 0.625000 0.250000
vt 0.375000 0.250000
vt 0.125000 0.500000
vt 0.375000 0.500000
vt 0.125000 0.750000
s 0
usemtl Material
f 1/1/1 5/2/1 2/3/1
f 2/3/2 5/2/2 3/4/2
f 1/5/3 2/6/3 3/7/3 4/8/3
f 3/4/4 5/2/4 4/9/4
f 4/9/5 5/2/5 1/1/5
f 6/10/6 10/11/6 12/12/6 8/13/6
f 9/14/7 8/13/7 12/15/7 13/16/7
f 13/17/3 12/18/3 10/19/3 11/20/3
f 11/21/8 7/22/8 9/14/8 13/23/8
f 7/22/9 6/10/9 8/13/9 9/14/9
f 11/20/10 10/19/10 6/10/10 7/22/10
